<?xml version="1.0" standalone="no"?>
<!DOCTYPE svg PUBLIC "-//W3C//DTD SVG 20010904//EN"
 "http://www.w3.org/TR/2001/REC-SVG-20010904/DTD/svg10.dtd">
<svg version="1.0" xmlns="http://www.w3.org/2000/svg"
 width="203.000000pt" height="203.000000pt" viewBox="0 0 203.000000 203.000000"
 preserveAspectRatio="xMidYMid meet">
<metadata>
Created by potrace 1.14, written by Peter Selinger 2001-2017
</metadata>
<g transform="translate(0.000000,203.000000) scale(0.100000,-0.100000)"
fill="#000000" stroke="none">
<path d="M957 1994 c-1 -1 -29 -4 -62 -7 -370 -35 -709 -320 -817 -687 -30
-102 -33 -135 -32 -305 1 -152 2 -165 34 -260 114 -349 376 -591 725 -670 105
-24 319 -22 426 3 385 93 672 391 744 777 22 117 16 306 -14 418 -97 365 -411
658 -766 716 -60 10 -231 21 -238 15z m240 -89 c307 -62 570 -294 671 -591 38
-112 51 -200 47 -329 -12 -396 -280 -729 -675 -841 -76 -21 -290 -30 -376 -15
-446 76 -764 465 -750 916 9 255 112 482 294 646 113 101 299 195 423 214 24
4 64 10 89 14 64 10 193 4 277 -14z"/>
<path d="M875 1531 c-173 -51 -297 -166 -359 -334 -27 -72 -35 -219 -16 -302
54 -240 297 -419 545 -402 175 13 324 99 413 240 59 93 75 147 80 267 4 94 1
114 -22 184 -59 174 -196 304 -366 349 -80 20 -203 20 -275 -2z m511 -430
c-20 -149 -140 -232 -282 -195 -31 8 -89 32 -129 54 -108 59 -162 50 -186 -30
l-12 -40 -69 0 -68 0 0 30 c0 44 37 134 68 165 85 87 193 84 362 -9 36 -20 76
-36 90 -36 36 0 71 31 79 71 6 29 11 35 41 39 19 3 52 3 74 1 l38 -3 -6 -47z"/>
</g>
</svg>
